<mxfile host="app.diagrams.net" modified="2023-09-15T00:53:36.669Z" agent="Mozilla/5.0 (Windows NT 10.0; Win64; x64) AppleWebKit/537.36 (KHTML, like Gecko) Chrome/116.0.0.0 Safari/537.36" version="21.7.5" etag="G8LXc2tk1Hxm1Fn_9Lvn" type="github">
  <diagram name="第 1 页" id="arLQDJ0VT4cODyiQnO0r">
    <mxGraphModel>
      <root>
        <mxCell id="0" />
        <mxCell id="1" parent="0" />
      </root>
    </mxGraphModel>
  </diagram>
</mxfile>
